<mxfile host="app.diagrams.net" modified="2020-12-08T07:27:41.944Z" agent="5.0 (Windows NT 10.0; Win64; x64) AppleWebKit/537.36 (KHTML, like Gecko) Chrome/87.0.4280.88 Safari/537.36" etag="LoBrIzCx5_7aANLv8GIQ" version="13.11.0" type="github">
  <diagram id="C5RBs43oDa-KdzZeNtuy" name="Page-1">
    <mxGraphModel dx="1422" dy="882" grid="1" gridSize="10" guides="1" tooltips="1" connect="1" arrows="1" fold="1" page="1" pageScale="1" pageWidth="827" pageHeight="1169" math="0" shadow="0">
      <root>
        <mxCell id="WIyWlLk6GJQsqaUBKTNV-0" />
        <mxCell id="WIyWlLk6GJQsqaUBKTNV-1" parent="WIyWlLk6GJQsqaUBKTNV-0" />
        <mxCell id="tI-stVmSsfOykZiwrWRr-0" value="Employee" style="swimlane;fontStyle=0;childLayout=stackLayout;horizontal=1;startSize=26;fillColor=none;horizontalStack=0;resizeParent=1;resizeParentMax=0;resizeLast=0;collapsible=1;marginBottom=0;" vertex="1" parent="WIyWlLk6GJQsqaUBKTNV-1">
          <mxGeometry x="352" y="20" width="140" height="112" as="geometry" />
        </mxCell>
        <mxCell id="tI-stVmSsfOykZiwrWRr-9" value="id" style="shape=partialRectangle;fillColor=none;align=left;verticalAlign=middle;strokeColor=none;spacingLeft=34;rotatable=0;points=[[0,0.5],[1,0.5]];portConstraint=eastwest;dropTarget=0;fontStyle=4" vertex="1" parent="tI-stVmSsfOykZiwrWRr-0">
          <mxGeometry y="26" width="140" height="30" as="geometry" />
        </mxCell>
        <mxCell id="tI-stVmSsfOykZiwrWRr-10" value="PK" style="shape=partialRectangle;top=0;left=0;bottom=0;fillColor=none;stokeWidth=1;dashed=1;align=left;verticalAlign=middle;spacingLeft=4;spacingRight=4;overflow=hidden;rotatable=0;points=[];portConstraint=eastwest;part=1;" vertex="1" connectable="0" parent="tI-stVmSsfOykZiwrWRr-9">
          <mxGeometry width="30" height="30" as="geometry" />
        </mxCell>
        <mxCell id="tI-stVmSsfOykZiwrWRr-15" value="" style="endArrow=none;html=1;rounded=0;entryX=1.013;entryY=-0.041;entryDx=0;entryDy=0;entryPerimeter=0;" edge="1" parent="tI-stVmSsfOykZiwrWRr-0" target="tI-stVmSsfOykZiwrWRr-11">
          <mxGeometry relative="1" as="geometry">
            <mxPoint y="55" as="sourcePoint" />
            <mxPoint x="138" y="53" as="targetPoint" />
          </mxGeometry>
        </mxCell>
        <mxCell id="tI-stVmSsfOykZiwrWRr-11" value="department_id" style="shape=partialRectangle;fillColor=none;align=left;verticalAlign=middle;strokeColor=none;spacingLeft=34;rotatable=0;points=[[0,0.5],[1,0.5]];portConstraint=eastwest;dropTarget=0;fontStyle=4" vertex="1" parent="tI-stVmSsfOykZiwrWRr-0">
          <mxGeometry y="56" width="140" height="30" as="geometry" />
        </mxCell>
        <mxCell id="tI-stVmSsfOykZiwrWRr-12" value="FK" style="shape=partialRectangle;top=0;left=0;bottom=0;fillColor=none;stokeWidth=1;dashed=1;align=left;verticalAlign=middle;spacingLeft=4;spacingRight=4;overflow=hidden;rotatable=0;points=[];portConstraint=eastwest;part=1;" vertex="1" connectable="0" parent="tI-stVmSsfOykZiwrWRr-11">
          <mxGeometry width="30" height="30" as="geometry" />
        </mxCell>
        <mxCell id="tI-stVmSsfOykZiwrWRr-16" value="" style="endArrow=none;html=1;rounded=0;entryX=1.013;entryY=-0.041;entryDx=0;entryDy=0;entryPerimeter=0;" edge="1" parent="tI-stVmSsfOykZiwrWRr-0">
          <mxGeometry relative="1" as="geometry">
            <mxPoint y="83.23000000000002" as="sourcePoint" />
            <mxPoint x="141.81999999999994" y="83" as="targetPoint" />
          </mxGeometry>
        </mxCell>
        <mxCell id="tI-stVmSsfOykZiwrWRr-2" value="name" style="text;strokeColor=none;fillColor=none;align=center;verticalAlign=top;spacingLeft=4;spacingRight=4;overflow=hidden;rotatable=0;points=[[0,0.5],[1,0.5]];portConstraint=eastwest;" vertex="1" parent="tI-stVmSsfOykZiwrWRr-0">
          <mxGeometry y="86" width="140" height="26" as="geometry" />
        </mxCell>
        <mxCell id="tI-stVmSsfOykZiwrWRr-5" value="Department" style="swimlane;fontStyle=0;childLayout=stackLayout;horizontal=1;startSize=26;fillColor=none;horizontalStack=0;resizeParent=1;resizeParentMax=0;resizeLast=0;collapsible=1;marginBottom=0;" vertex="1" parent="WIyWlLk6GJQsqaUBKTNV-1">
          <mxGeometry x="583" y="20" width="140" height="82" as="geometry" />
        </mxCell>
        <mxCell id="tI-stVmSsfOykZiwrWRr-17" value="id" style="shape=partialRectangle;fillColor=none;align=left;verticalAlign=middle;strokeColor=none;spacingLeft=34;rotatable=0;points=[[0,0.5],[1,0.5]];portConstraint=eastwest;dropTarget=0;fontStyle=4" vertex="1" parent="tI-stVmSsfOykZiwrWRr-5">
          <mxGeometry y="26" width="140" height="30" as="geometry" />
        </mxCell>
        <mxCell id="tI-stVmSsfOykZiwrWRr-18" value="PK" style="shape=partialRectangle;top=0;left=0;bottom=0;fillColor=none;stokeWidth=1;dashed=1;align=left;verticalAlign=middle;spacingLeft=4;spacingRight=4;overflow=hidden;rotatable=0;points=[];portConstraint=eastwest;part=1;" vertex="1" connectable="0" parent="tI-stVmSsfOykZiwrWRr-17">
          <mxGeometry width="30" height="30" as="geometry" />
        </mxCell>
        <mxCell id="tI-stVmSsfOykZiwrWRr-19" value="" style="endArrow=none;html=1;rounded=0;" edge="1" parent="tI-stVmSsfOykZiwrWRr-5">
          <mxGeometry relative="1" as="geometry">
            <mxPoint y="55.31" as="sourcePoint" />
            <mxPoint x="141" y="56" as="targetPoint" />
          </mxGeometry>
        </mxCell>
        <mxCell id="tI-stVmSsfOykZiwrWRr-7" value="name" style="text;strokeColor=none;fillColor=none;align=center;verticalAlign=top;spacingLeft=4;spacingRight=4;overflow=hidden;rotatable=0;points=[[0,0.5],[1,0.5]];portConstraint=eastwest;" vertex="1" parent="tI-stVmSsfOykZiwrWRr-5">
          <mxGeometry y="56" width="140" height="26" as="geometry" />
        </mxCell>
        <mxCell id="tI-stVmSsfOykZiwrWRr-20" value="Email" style="swimlane;fontStyle=0;childLayout=stackLayout;horizontal=1;startSize=26;fillColor=none;horizontalStack=0;resizeParent=1;resizeParentMax=0;resizeLast=0;collapsible=1;marginBottom=0;" vertex="1" parent="WIyWlLk6GJQsqaUBKTNV-1">
          <mxGeometry x="103" y="20" width="140" height="116" as="geometry" />
        </mxCell>
        <mxCell id="tI-stVmSsfOykZiwrWRr-21" value="id" style="shape=partialRectangle;fillColor=none;align=left;verticalAlign=middle;strokeColor=none;spacingLeft=34;rotatable=0;points=[[0,0.5],[1,0.5]];portConstraint=eastwest;dropTarget=0;fontStyle=4" vertex="1" parent="tI-stVmSsfOykZiwrWRr-20">
          <mxGeometry y="26" width="140" height="30" as="geometry" />
        </mxCell>
        <mxCell id="tI-stVmSsfOykZiwrWRr-22" value="PK" style="shape=partialRectangle;top=0;left=0;bottom=0;fillColor=none;stokeWidth=1;dashed=1;align=left;verticalAlign=middle;spacingLeft=4;spacingRight=4;overflow=hidden;rotatable=0;points=[];portConstraint=eastwest;part=1;" vertex="1" connectable="0" parent="tI-stVmSsfOykZiwrWRr-21">
          <mxGeometry width="30" height="30" as="geometry" />
        </mxCell>
        <mxCell id="tI-stVmSsfOykZiwrWRr-23" value="" style="endArrow=none;html=1;rounded=0;entryX=1.013;entryY=-0.041;entryDx=0;entryDy=0;entryPerimeter=0;" edge="1" parent="tI-stVmSsfOykZiwrWRr-20" target="tI-stVmSsfOykZiwrWRr-24">
          <mxGeometry relative="1" as="geometry">
            <mxPoint y="55" as="sourcePoint" />
            <mxPoint x="138" y="53" as="targetPoint" />
          </mxGeometry>
        </mxCell>
        <mxCell id="tI-stVmSsfOykZiwrWRr-24" value="emp_id" style="shape=partialRectangle;fillColor=none;align=left;verticalAlign=middle;strokeColor=none;spacingLeft=34;rotatable=0;points=[[0,0.5],[1,0.5]];portConstraint=eastwest;dropTarget=0;" vertex="1" parent="tI-stVmSsfOykZiwrWRr-20">
          <mxGeometry y="56" width="140" height="30" as="geometry" />
        </mxCell>
        <mxCell id="tI-stVmSsfOykZiwrWRr-25" value="FK" style="shape=partialRectangle;top=0;left=0;bottom=0;fillColor=none;stokeWidth=1;dashed=1;align=left;verticalAlign=middle;spacingLeft=4;spacingRight=4;overflow=hidden;rotatable=0;points=[];portConstraint=eastwest;part=1;" vertex="1" connectable="0" parent="tI-stVmSsfOykZiwrWRr-24">
          <mxGeometry width="30" height="30" as="geometry" />
        </mxCell>
        <mxCell id="tI-stVmSsfOykZiwrWRr-28" value="email" style="shape=partialRectangle;fillColor=none;align=left;verticalAlign=middle;strokeColor=none;spacingLeft=34;rotatable=0;points=[[0,0.5],[1,0.5]];portConstraint=eastwest;dropTarget=0;" vertex="1" parent="tI-stVmSsfOykZiwrWRr-20">
          <mxGeometry y="86" width="140" height="30" as="geometry" />
        </mxCell>
        <mxCell id="tI-stVmSsfOykZiwrWRr-29" value="" style="shape=partialRectangle;top=0;left=0;bottom=0;fillColor=none;stokeWidth=1;dashed=1;align=left;verticalAlign=middle;spacingLeft=4;spacingRight=4;overflow=hidden;rotatable=0;points=[];portConstraint=eastwest;part=1;" vertex="1" connectable="0" parent="tI-stVmSsfOykZiwrWRr-28">
          <mxGeometry width="30" height="30" as="geometry" />
        </mxCell>
        <mxCell id="tI-stVmSsfOykZiwrWRr-30" value="" style="edgeStyle=elbowEdgeStyle;elbow=horizontal;endArrow=classic;html=1;entryX=0;entryY=0.5;entryDx=0;entryDy=0;" edge="1" parent="WIyWlLk6GJQsqaUBKTNV-1" target="tI-stVmSsfOykZiwrWRr-9">
          <mxGeometry width="50" height="50" relative="1" as="geometry">
            <mxPoint x="243" y="91" as="sourcePoint" />
            <mxPoint x="392" y="330" as="targetPoint" />
            <Array as="points">
              <mxPoint x="302" y="100" />
            </Array>
          </mxGeometry>
        </mxCell>
        <mxCell id="tI-stVmSsfOykZiwrWRr-31" value="" style="edgeStyle=elbowEdgeStyle;elbow=horizontal;endArrow=classic;html=1;entryX=0;entryY=0.5;entryDx=0;entryDy=0;exitX=1.012;exitY=0.3;exitDx=0;exitDy=0;exitPerimeter=0;" edge="1" parent="WIyWlLk6GJQsqaUBKTNV-1" source="tI-stVmSsfOykZiwrWRr-11" target="tI-stVmSsfOykZiwrWRr-17">
          <mxGeometry width="50" height="50" relative="1" as="geometry">
            <mxPoint x="682" y="220" as="sourcePoint" />
            <mxPoint x="732" y="170" as="targetPoint" />
            <Array as="points">
              <mxPoint x="543" y="61" />
            </Array>
          </mxGeometry>
        </mxCell>
        <mxCell id="tI-stVmSsfOykZiwrWRr-32" value="todo_list" style="shape=table;startSize=30;container=1;collapsible=1;childLayout=tableLayout;fixedRows=1;rowLines=0;fontStyle=1;align=center;resizeLast=1;" vertex="1" parent="WIyWlLk6GJQsqaUBKTNV-1">
          <mxGeometry x="103" y="220" width="180" height="120" as="geometry" />
        </mxCell>
        <mxCell id="tI-stVmSsfOykZiwrWRr-33" value="" style="shape=partialRectangle;collapsible=0;dropTarget=0;pointerEvents=0;fillColor=none;top=0;left=0;bottom=1;right=0;points=[[0,0.5],[1,0.5]];portConstraint=eastwest;" vertex="1" parent="tI-stVmSsfOykZiwrWRr-32">
          <mxGeometry y="30" width="180" height="30" as="geometry" />
        </mxCell>
        <mxCell id="tI-stVmSsfOykZiwrWRr-34" value="PK" style="shape=partialRectangle;connectable=0;fillColor=none;top=0;left=0;bottom=0;right=0;fontStyle=1;overflow=hidden;" vertex="1" parent="tI-stVmSsfOykZiwrWRr-33">
          <mxGeometry width="30" height="30" as="geometry" />
        </mxCell>
        <mxCell id="tI-stVmSsfOykZiwrWRr-35" value="id" style="shape=partialRectangle;connectable=0;fillColor=none;top=0;left=0;bottom=0;right=0;align=left;spacingLeft=6;fontStyle=5;overflow=hidden;" vertex="1" parent="tI-stVmSsfOykZiwrWRr-33">
          <mxGeometry x="30" width="150" height="30" as="geometry" />
        </mxCell>
        <mxCell id="tI-stVmSsfOykZiwrWRr-36" value="" style="shape=partialRectangle;collapsible=0;dropTarget=0;pointerEvents=0;fillColor=none;top=0;left=0;bottom=0;right=0;points=[[0,0.5],[1,0.5]];portConstraint=eastwest;" vertex="1" parent="tI-stVmSsfOykZiwrWRr-32">
          <mxGeometry y="60" width="180" height="30" as="geometry" />
        </mxCell>
        <mxCell id="tI-stVmSsfOykZiwrWRr-37" value="" style="shape=partialRectangle;connectable=0;fillColor=none;top=0;left=0;bottom=0;right=0;editable=1;overflow=hidden;" vertex="1" parent="tI-stVmSsfOykZiwrWRr-36">
          <mxGeometry width="30" height="30" as="geometry" />
        </mxCell>
        <mxCell id="tI-stVmSsfOykZiwrWRr-38" value="name" style="shape=partialRectangle;connectable=0;fillColor=none;top=0;left=0;bottom=0;right=0;align=left;spacingLeft=6;overflow=hidden;" vertex="1" parent="tI-stVmSsfOykZiwrWRr-36">
          <mxGeometry x="30" width="150" height="30" as="geometry" />
        </mxCell>
        <mxCell id="tI-stVmSsfOykZiwrWRr-39" value="" style="shape=partialRectangle;collapsible=0;dropTarget=0;pointerEvents=0;fillColor=none;top=0;left=0;bottom=0;right=0;points=[[0,0.5],[1,0.5]];portConstraint=eastwest;" vertex="1" parent="tI-stVmSsfOykZiwrWRr-32">
          <mxGeometry y="90" width="180" height="30" as="geometry" />
        </mxCell>
        <mxCell id="tI-stVmSsfOykZiwrWRr-40" value="" style="shape=partialRectangle;connectable=0;fillColor=none;top=0;left=0;bottom=0;right=0;editable=1;overflow=hidden;" vertex="1" parent="tI-stVmSsfOykZiwrWRr-39">
          <mxGeometry width="30" height="30" as="geometry" />
        </mxCell>
        <mxCell id="tI-stVmSsfOykZiwrWRr-41" value="due_date" style="shape=partialRectangle;connectable=0;fillColor=none;top=0;left=0;bottom=0;right=0;align=left;spacingLeft=6;overflow=hidden;" vertex="1" parent="tI-stVmSsfOykZiwrWRr-39">
          <mxGeometry x="30" width="150" height="30" as="geometry" />
        </mxCell>
        <mxCell id="tI-stVmSsfOykZiwrWRr-55" value="Table" style="shape=table;startSize=30;container=1;collapsible=1;childLayout=tableLayout;fixedRows=1;rowLines=0;fontStyle=1;align=center;resizeLast=1;" vertex="1" parent="WIyWlLk6GJQsqaUBKTNV-1">
          <mxGeometry x="403" y="205" width="180" height="155" as="geometry">
            <mxRectangle x="332" y="220" width="60" height="30" as="alternateBounds" />
          </mxGeometry>
        </mxCell>
        <mxCell id="tI-stVmSsfOykZiwrWRr-56" value="" style="shape=partialRectangle;collapsible=0;dropTarget=0;pointerEvents=0;fillColor=none;top=0;left=0;bottom=0;right=0;points=[[0,0.5],[1,0.5]];portConstraint=eastwest;" vertex="1" parent="tI-stVmSsfOykZiwrWRr-55">
          <mxGeometry y="30" width="180" height="30" as="geometry" />
        </mxCell>
        <mxCell id="tI-stVmSsfOykZiwrWRr-57" value="PK" style="shape=partialRectangle;connectable=0;fillColor=none;top=0;left=0;bottom=0;right=0;fontStyle=1;overflow=hidden;" vertex="1" parent="tI-stVmSsfOykZiwrWRr-56">
          <mxGeometry width="60" height="30" as="geometry" />
        </mxCell>
        <mxCell id="tI-stVmSsfOykZiwrWRr-58" value="todo_id" style="shape=partialRectangle;connectable=0;fillColor=none;top=0;left=0;bottom=0;right=0;align=left;spacingLeft=6;fontStyle=5;overflow=hidden;" vertex="1" parent="tI-stVmSsfOykZiwrWRr-56">
          <mxGeometry x="60" width="120" height="30" as="geometry" />
        </mxCell>
        <mxCell id="tI-stVmSsfOykZiwrWRr-79" value="" style="shape=partialRectangle;collapsible=0;dropTarget=0;pointerEvents=0;fillColor=none;top=0;left=0;bottom=0;right=0;points=[[0,0.5],[1,0.5]];portConstraint=eastwest;strokeColor=#FFFFFF;align=center;" vertex="1" parent="tI-stVmSsfOykZiwrWRr-55">
          <mxGeometry y="60" width="180" height="30" as="geometry" />
        </mxCell>
        <mxCell id="tI-stVmSsfOykZiwrWRr-80" value="" style="shape=partialRectangle;connectable=0;fillColor=none;top=0;left=0;bottom=0;right=0;fontStyle=0;overflow=hidden;" vertex="1" parent="tI-stVmSsfOykZiwrWRr-79">
          <mxGeometry width="60" height="30" as="geometry" />
        </mxCell>
        <mxCell id="tI-stVmSsfOykZiwrWRr-81" value="text" style="shape=partialRectangle;connectable=0;fillColor=none;top=0;left=0;bottom=0;right=0;align=left;spacingLeft=6;fontStyle=4;overflow=hidden;" vertex="1" parent="tI-stVmSsfOykZiwrWRr-79">
          <mxGeometry x="60" width="120" height="30" as="geometry" />
        </mxCell>
        <mxCell id="tI-stVmSsfOykZiwrWRr-62" value="" style="shape=partialRectangle;collapsible=0;dropTarget=0;pointerEvents=0;fillColor=none;top=0;left=0;bottom=0;right=0;points=[[0,0.5],[1,0.5]];portConstraint=eastwest;" vertex="1" parent="tI-stVmSsfOykZiwrWRr-55">
          <mxGeometry y="90" width="180" height="30" as="geometry" />
        </mxCell>
        <mxCell id="tI-stVmSsfOykZiwrWRr-63" value="" style="shape=partialRectangle;connectable=0;fillColor=none;top=0;left=0;bottom=0;right=0;editable=1;overflow=hidden;" vertex="1" parent="tI-stVmSsfOykZiwrWRr-62">
          <mxGeometry width="60" height="30" as="geometry" />
        </mxCell>
        <mxCell id="tI-stVmSsfOykZiwrWRr-64" value="is_completed" style="shape=partialRectangle;connectable=0;fillColor=none;top=0;left=0;bottom=0;right=0;align=left;spacingLeft=6;overflow=hidden;fontStyle=4" vertex="1" parent="tI-stVmSsfOykZiwrWRr-62">
          <mxGeometry x="60" width="120" height="30" as="geometry" />
        </mxCell>
        <mxCell id="tI-stVmSsfOykZiwrWRr-82" value="" style="shape=partialRectangle;collapsible=0;dropTarget=0;pointerEvents=0;fillColor=none;top=0;left=0;bottom=0;right=0;points=[[0,0.5],[1,0.5]];portConstraint=eastwest;strokeColor=#FFFFFF;align=center;" vertex="1" parent="tI-stVmSsfOykZiwrWRr-55">
          <mxGeometry y="120" width="180" height="30" as="geometry" />
        </mxCell>
        <mxCell id="tI-stVmSsfOykZiwrWRr-83" value="FK" style="shape=partialRectangle;connectable=0;fillColor=none;top=0;left=0;bottom=0;right=0;fontStyle=0;overflow=hidden;" vertex="1" parent="tI-stVmSsfOykZiwrWRr-82">
          <mxGeometry width="60" height="30" as="geometry" />
        </mxCell>
        <mxCell id="tI-stVmSsfOykZiwrWRr-84" value="todo_id" style="shape=partialRectangle;connectable=0;fillColor=none;top=0;left=0;bottom=0;right=0;align=left;spacingLeft=6;fontStyle=0;overflow=hidden;" vertex="1" parent="tI-stVmSsfOykZiwrWRr-82">
          <mxGeometry x="60" width="120" height="30" as="geometry" />
        </mxCell>
        <mxCell id="tI-stVmSsfOykZiwrWRr-88" value="" style="line;strokeWidth=1;rotatable=0;dashed=0;labelPosition=right;align=left;verticalAlign=middle;spacingTop=0;spacingLeft=6;points=[];portConstraint=eastwest;" vertex="1" parent="WIyWlLk6GJQsqaUBKTNV-1">
          <mxGeometry x="403" y="320" width="177" height="10" as="geometry" />
        </mxCell>
        <mxCell id="tI-stVmSsfOykZiwrWRr-89" value="" style="edgeStyle=elbowEdgeStyle;elbow=horizontal;endArrow=classic;html=1;entryX=1;entryY=0.5;entryDx=0;entryDy=0;" edge="1" parent="WIyWlLk6GJQsqaUBKTNV-1" source="tI-stVmSsfOykZiwrWRr-82" target="tI-stVmSsfOykZiwrWRr-33">
          <mxGeometry width="50" height="50" relative="1" as="geometry">
            <mxPoint x="300" y="290" as="sourcePoint" />
            <mxPoint x="350" y="240" as="targetPoint" />
          </mxGeometry>
        </mxCell>
        <mxCell id="tI-stVmSsfOykZiwrWRr-90" value="User" style="shape=table;startSize=30;container=1;collapsible=1;childLayout=tableLayout;fixedRows=1;rowLines=0;fontStyle=1;align=center;resizeLast=1;" vertex="1" parent="WIyWlLk6GJQsqaUBKTNV-1">
          <mxGeometry x="103" y="420" width="180" height="120" as="geometry" />
        </mxCell>
        <mxCell id="tI-stVmSsfOykZiwrWRr-91" value="" style="shape=partialRectangle;collapsible=0;dropTarget=0;pointerEvents=0;fillColor=none;top=0;left=0;bottom=1;right=0;points=[[0,0.5],[1,0.5]];portConstraint=eastwest;" vertex="1" parent="tI-stVmSsfOykZiwrWRr-90">
          <mxGeometry y="30" width="180" height="30" as="geometry" />
        </mxCell>
        <mxCell id="tI-stVmSsfOykZiwrWRr-92" value="PK" style="shape=partialRectangle;connectable=0;fillColor=none;top=0;left=0;bottom=0;right=0;fontStyle=1;overflow=hidden;" vertex="1" parent="tI-stVmSsfOykZiwrWRr-91">
          <mxGeometry width="30" height="30" as="geometry" />
        </mxCell>
        <mxCell id="tI-stVmSsfOykZiwrWRr-93" value="id" style="shape=partialRectangle;connectable=0;fillColor=none;top=0;left=0;bottom=0;right=0;align=left;spacingLeft=6;fontStyle=5;overflow=hidden;" vertex="1" parent="tI-stVmSsfOykZiwrWRr-91">
          <mxGeometry x="30" width="150" height="30" as="geometry" />
        </mxCell>
        <mxCell id="tI-stVmSsfOykZiwrWRr-94" value="" style="shape=partialRectangle;collapsible=0;dropTarget=0;pointerEvents=0;fillColor=none;top=0;left=0;bottom=0;right=0;points=[[0,0.5],[1,0.5]];portConstraint=eastwest;" vertex="1" parent="tI-stVmSsfOykZiwrWRr-90">
          <mxGeometry y="60" width="180" height="30" as="geometry" />
        </mxCell>
        <mxCell id="tI-stVmSsfOykZiwrWRr-95" value="" style="shape=partialRectangle;connectable=0;fillColor=none;top=0;left=0;bottom=0;right=0;editable=1;overflow=hidden;" vertex="1" parent="tI-stVmSsfOykZiwrWRr-94">
          <mxGeometry width="30" height="30" as="geometry" />
        </mxCell>
        <mxCell id="tI-stVmSsfOykZiwrWRr-96" value="username" style="shape=partialRectangle;connectable=0;fillColor=none;top=0;left=0;bottom=0;right=0;align=left;spacingLeft=6;overflow=hidden;" vertex="1" parent="tI-stVmSsfOykZiwrWRr-94">
          <mxGeometry x="30" width="150" height="30" as="geometry" />
        </mxCell>
        <mxCell id="tI-stVmSsfOykZiwrWRr-97" value="" style="shape=partialRectangle;collapsible=0;dropTarget=0;pointerEvents=0;fillColor=none;top=0;left=0;bottom=0;right=0;points=[[0,0.5],[1,0.5]];portConstraint=eastwest;" vertex="1" parent="tI-stVmSsfOykZiwrWRr-90">
          <mxGeometry y="90" width="180" height="30" as="geometry" />
        </mxCell>
        <mxCell id="tI-stVmSsfOykZiwrWRr-98" value="" style="shape=partialRectangle;connectable=0;fillColor=none;top=0;left=0;bottom=0;right=0;editable=1;overflow=hidden;" vertex="1" parent="tI-stVmSsfOykZiwrWRr-97">
          <mxGeometry width="30" height="30" as="geometry" />
        </mxCell>
        <mxCell id="tI-stVmSsfOykZiwrWRr-99" value="password" style="shape=partialRectangle;connectable=0;fillColor=none;top=0;left=0;bottom=0;right=0;align=left;spacingLeft=6;overflow=hidden;" vertex="1" parent="tI-stVmSsfOykZiwrWRr-97">
          <mxGeometry x="30" width="150" height="30" as="geometry" />
        </mxCell>
        <mxCell id="tI-stVmSsfOykZiwrWRr-100" value="Post" style="shape=table;startSize=30;container=1;collapsible=1;childLayout=tableLayout;fixedRows=1;rowLines=0;fontStyle=1;align=center;resizeLast=1;" vertex="1" parent="WIyWlLk6GJQsqaUBKTNV-1">
          <mxGeometry x="540" y="420" width="180" height="150" as="geometry" />
        </mxCell>
        <mxCell id="tI-stVmSsfOykZiwrWRr-101" value="" style="shape=partialRectangle;collapsible=0;dropTarget=0;pointerEvents=0;fillColor=none;top=0;left=0;bottom=1;right=0;points=[[0,0.5],[1,0.5]];portConstraint=eastwest;" vertex="1" parent="tI-stVmSsfOykZiwrWRr-100">
          <mxGeometry y="30" width="180" height="30" as="geometry" />
        </mxCell>
        <mxCell id="tI-stVmSsfOykZiwrWRr-102" value="PK" style="shape=partialRectangle;connectable=0;fillColor=none;top=0;left=0;bottom=0;right=0;fontStyle=1;overflow=hidden;" vertex="1" parent="tI-stVmSsfOykZiwrWRr-101">
          <mxGeometry width="30" height="30" as="geometry" />
        </mxCell>
        <mxCell id="tI-stVmSsfOykZiwrWRr-103" value="id" style="shape=partialRectangle;connectable=0;fillColor=none;top=0;left=0;bottom=0;right=0;align=left;spacingLeft=6;fontStyle=5;overflow=hidden;" vertex="1" parent="tI-stVmSsfOykZiwrWRr-101">
          <mxGeometry x="30" width="150" height="30" as="geometry" />
        </mxCell>
        <mxCell id="tI-stVmSsfOykZiwrWRr-104" value="" style="shape=partialRectangle;collapsible=0;dropTarget=0;pointerEvents=0;fillColor=none;top=0;left=0;bottom=0;right=0;points=[[0,0.5],[1,0.5]];portConstraint=eastwest;" vertex="1" parent="tI-stVmSsfOykZiwrWRr-100">
          <mxGeometry y="60" width="180" height="30" as="geometry" />
        </mxCell>
        <mxCell id="tI-stVmSsfOykZiwrWRr-105" value="" style="shape=partialRectangle;connectable=0;fillColor=none;top=0;left=0;bottom=0;right=0;editable=1;overflow=hidden;" vertex="1" parent="tI-stVmSsfOykZiwrWRr-104">
          <mxGeometry width="30" height="30" as="geometry" />
        </mxCell>
        <mxCell id="tI-stVmSsfOykZiwrWRr-106" value="deadline" style="shape=partialRectangle;connectable=0;fillColor=none;top=0;left=0;bottom=0;right=0;align=left;spacingLeft=6;overflow=hidden;" vertex="1" parent="tI-stVmSsfOykZiwrWRr-104">
          <mxGeometry x="30" width="150" height="30" as="geometry" />
        </mxCell>
        <mxCell id="tI-stVmSsfOykZiwrWRr-107" value="" style="shape=partialRectangle;collapsible=0;dropTarget=0;pointerEvents=0;fillColor=none;top=0;left=0;bottom=0;right=0;points=[[0,0.5],[1,0.5]];portConstraint=eastwest;" vertex="1" parent="tI-stVmSsfOykZiwrWRr-100">
          <mxGeometry y="90" width="180" height="30" as="geometry" />
        </mxCell>
        <mxCell id="tI-stVmSsfOykZiwrWRr-108" value="" style="shape=partialRectangle;connectable=0;fillColor=none;top=0;left=0;bottom=0;right=0;editable=1;overflow=hidden;" vertex="1" parent="tI-stVmSsfOykZiwrWRr-107">
          <mxGeometry width="30" height="30" as="geometry" />
        </mxCell>
        <mxCell id="tI-stVmSsfOykZiwrWRr-109" value="title" style="shape=partialRectangle;connectable=0;fillColor=none;top=0;left=0;bottom=0;right=0;align=left;spacingLeft=6;overflow=hidden;" vertex="1" parent="tI-stVmSsfOykZiwrWRr-107">
          <mxGeometry x="30" width="150" height="30" as="geometry" />
        </mxCell>
        <mxCell id="tI-stVmSsfOykZiwrWRr-112" style="shape=partialRectangle;collapsible=0;dropTarget=0;pointerEvents=0;fillColor=none;top=0;left=0;bottom=0;right=0;points=[[0,0.5],[1,0.5]];portConstraint=eastwest;" vertex="1" parent="tI-stVmSsfOykZiwrWRr-100">
          <mxGeometry y="120" width="180" height="30" as="geometry" />
        </mxCell>
        <mxCell id="tI-stVmSsfOykZiwrWRr-113" style="shape=partialRectangle;connectable=0;fillColor=none;top=0;left=0;bottom=0;right=0;editable=1;overflow=hidden;" vertex="1" parent="tI-stVmSsfOykZiwrWRr-112">
          <mxGeometry width="30" height="30" as="geometry" />
        </mxCell>
        <mxCell id="tI-stVmSsfOykZiwrWRr-114" value="image" style="shape=partialRectangle;connectable=0;fillColor=none;top=0;left=0;bottom=0;right=0;align=left;spacingLeft=6;overflow=hidden;" vertex="1" parent="tI-stVmSsfOykZiwrWRr-112">
          <mxGeometry x="30" width="150" height="30" as="geometry" />
        </mxCell>
        <mxCell id="tI-stVmSsfOykZiwrWRr-123" value="Has" style="swimlane;fontStyle=0;childLayout=stackLayout;horizontal=1;startSize=26;horizontalStack=0;resizeParent=1;resizeParentMax=0;resizeLast=0;collapsible=1;marginBottom=0;align=center;fontSize=14;labelBackgroundColor=none;strokeColor=#1A1A1A;" vertex="1" parent="WIyWlLk6GJQsqaUBKTNV-1">
          <mxGeometry x="332" y="420" width="160" height="154" as="geometry" />
        </mxCell>
        <mxCell id="tI-stVmSsfOykZiwrWRr-127" value="user_id" style="shape=partialRectangle;fillColor=none;align=left;verticalAlign=middle;strokeColor=none;spacingLeft=34;rotatable=0;points=[[0,0.5],[1,0.5]];portConstraint=eastwest;dropTarget=0;labelBackgroundColor=none;fontColor=#000000;fontStyle=4" vertex="1" parent="tI-stVmSsfOykZiwrWRr-123">
          <mxGeometry y="26" width="160" height="30" as="geometry" />
        </mxCell>
        <mxCell id="tI-stVmSsfOykZiwrWRr-128" value="PK" style="shape=partialRectangle;top=0;left=0;bottom=0;fillColor=none;stokeWidth=1;dashed=1;align=left;verticalAlign=middle;spacingLeft=4;spacingRight=4;overflow=hidden;rotatable=0;points=[];portConstraint=eastwest;part=1;" vertex="1" connectable="0" parent="tI-stVmSsfOykZiwrWRr-127">
          <mxGeometry width="30" height="30" as="geometry" />
        </mxCell>
        <mxCell id="tI-stVmSsfOykZiwrWRr-131" value="post_id" style="shape=partialRectangle;fillColor=none;align=left;verticalAlign=middle;strokeColor=none;spacingLeft=34;rotatable=0;points=[[0,0.5],[1,0.5]];portConstraint=eastwest;dropTarget=0;labelBackgroundColor=none;fontColor=#000000;fontStyle=4" vertex="1" parent="tI-stVmSsfOykZiwrWRr-123">
          <mxGeometry y="56" width="160" height="30" as="geometry" />
        </mxCell>
        <mxCell id="tI-stVmSsfOykZiwrWRr-132" value="" style="shape=partialRectangle;top=0;left=0;bottom=0;fillColor=none;stokeWidth=1;dashed=1;align=left;verticalAlign=middle;spacingLeft=4;spacingRight=4;overflow=hidden;rotatable=0;points=[];portConstraint=eastwest;part=1;" vertex="1" connectable="0" parent="tI-stVmSsfOykZiwrWRr-131">
          <mxGeometry width="30" height="30" as="geometry" />
        </mxCell>
        <mxCell id="tI-stVmSsfOykZiwrWRr-135" value="" style="line;strokeWidth=1;rotatable=0;dashed=0;labelPosition=right;align=left;verticalAlign=middle;spacingTop=0;spacingLeft=6;points=[];portConstraint=eastwest;labelBackgroundColor=none;fontColor=#000000;" vertex="1" parent="tI-stVmSsfOykZiwrWRr-123">
          <mxGeometry y="86" width="160" height="8" as="geometry" />
        </mxCell>
        <mxCell id="tI-stVmSsfOykZiwrWRr-133" value="user_id" style="shape=partialRectangle;fillColor=none;align=left;verticalAlign=middle;strokeColor=none;spacingLeft=34;rotatable=0;points=[[0,0.5],[1,0.5]];portConstraint=eastwest;dropTarget=0;labelBackgroundColor=none;fontColor=#000000;" vertex="1" parent="tI-stVmSsfOykZiwrWRr-123">
          <mxGeometry y="94" width="160" height="30" as="geometry" />
        </mxCell>
        <mxCell id="tI-stVmSsfOykZiwrWRr-134" value="FK" style="shape=partialRectangle;top=0;left=0;bottom=0;fillColor=none;stokeWidth=1;dashed=1;align=left;verticalAlign=middle;spacingLeft=4;spacingRight=4;overflow=hidden;rotatable=0;points=[];portConstraint=eastwest;part=1;" vertex="1" connectable="0" parent="tI-stVmSsfOykZiwrWRr-133">
          <mxGeometry width="30" height="30" as="geometry" />
        </mxCell>
        <mxCell id="tI-stVmSsfOykZiwrWRr-129" value="post_id" style="shape=partialRectangle;fillColor=none;align=left;verticalAlign=middle;strokeColor=none;spacingLeft=34;rotatable=0;points=[[0,0.5],[1,0.5]];portConstraint=eastwest;dropTarget=0;labelBackgroundColor=none;fontColor=#000000;" vertex="1" parent="tI-stVmSsfOykZiwrWRr-123">
          <mxGeometry y="124" width="160" height="30" as="geometry" />
        </mxCell>
        <mxCell id="tI-stVmSsfOykZiwrWRr-130" value="" style="shape=partialRectangle;top=0;left=0;bottom=0;fillColor=none;stokeWidth=1;dashed=1;align=left;verticalAlign=middle;spacingLeft=4;spacingRight=4;overflow=hidden;rotatable=0;points=[];portConstraint=eastwest;part=1;" vertex="1" connectable="0" parent="tI-stVmSsfOykZiwrWRr-129">
          <mxGeometry width="30" height="30" as="geometry" />
        </mxCell>
        <mxCell id="tI-stVmSsfOykZiwrWRr-138" value="" style="edgeStyle=elbowEdgeStyle;elbow=horizontal;endArrow=classic;html=1;fontColor=#000000;exitX=0;exitY=0.5;exitDx=0;exitDy=0;entryX=1;entryY=0.5;entryDx=0;entryDy=0;" edge="1" parent="WIyWlLk6GJQsqaUBKTNV-1" source="tI-stVmSsfOykZiwrWRr-133" target="tI-stVmSsfOykZiwrWRr-91">
          <mxGeometry width="50" height="50" relative="1" as="geometry">
            <mxPoint x="270" y="550" as="sourcePoint" />
            <mxPoint x="320" y="500" as="targetPoint" />
          </mxGeometry>
        </mxCell>
        <mxCell id="tI-stVmSsfOykZiwrWRr-139" value="" style="edgeStyle=elbowEdgeStyle;elbow=horizontal;endArrow=classic;html=1;fontColor=#000000;entryX=0;entryY=0.5;entryDx=0;entryDy=0;" edge="1" parent="WIyWlLk6GJQsqaUBKTNV-1" target="tI-stVmSsfOykZiwrWRr-101">
          <mxGeometry width="50" height="50" relative="1" as="geometry">
            <mxPoint x="492" y="560" as="sourcePoint" />
            <mxPoint x="542" y="510" as="targetPoint" />
          </mxGeometry>
        </mxCell>
        <mxCell id="tI-stVmSsfOykZiwrWRr-140" value="ID Card Detail" style="shape=table;startSize=30;container=1;collapsible=1;childLayout=tableLayout;fixedRows=1;rowLines=0;fontStyle=1;align=center;resizeLast=1;" vertex="1" parent="WIyWlLk6GJQsqaUBKTNV-1">
          <mxGeometry x="102" y="650" width="180" height="120" as="geometry" />
        </mxCell>
        <mxCell id="tI-stVmSsfOykZiwrWRr-141" value="" style="shape=partialRectangle;collapsible=0;dropTarget=0;pointerEvents=0;fillColor=none;top=0;left=0;bottom=1;right=0;points=[[0,0.5],[1,0.5]];portConstraint=eastwest;" vertex="1" parent="tI-stVmSsfOykZiwrWRr-140">
          <mxGeometry y="30" width="180" height="30" as="geometry" />
        </mxCell>
        <mxCell id="tI-stVmSsfOykZiwrWRr-142" value="PK" style="shape=partialRectangle;connectable=0;fillColor=none;top=0;left=0;bottom=0;right=0;fontStyle=1;overflow=hidden;" vertex="1" parent="tI-stVmSsfOykZiwrWRr-141">
          <mxGeometry width="30" height="30" as="geometry" />
        </mxCell>
        <mxCell id="tI-stVmSsfOykZiwrWRr-143" value="id" style="shape=partialRectangle;connectable=0;fillColor=none;top=0;left=0;bottom=0;right=0;align=left;spacingLeft=6;fontStyle=5;overflow=hidden;" vertex="1" parent="tI-stVmSsfOykZiwrWRr-141">
          <mxGeometry x="30" width="150" height="30" as="geometry" />
        </mxCell>
        <mxCell id="tI-stVmSsfOykZiwrWRr-188" style="shape=partialRectangle;collapsible=0;dropTarget=0;pointerEvents=0;fillColor=none;top=0;left=0;bottom=1;right=0;points=[[0,0.5],[1,0.5]];portConstraint=eastwest;" vertex="1" parent="tI-stVmSsfOykZiwrWRr-140">
          <mxGeometry y="60" width="180" height="30" as="geometry" />
        </mxCell>
        <mxCell id="tI-stVmSsfOykZiwrWRr-189" value="FK" style="shape=partialRectangle;connectable=0;fillColor=none;top=0;left=0;bottom=0;right=0;fontStyle=1;overflow=hidden;" vertex="1" parent="tI-stVmSsfOykZiwrWRr-188">
          <mxGeometry width="30" height="30" as="geometry" />
        </mxCell>
        <mxCell id="tI-stVmSsfOykZiwrWRr-190" value="emp_id" style="shape=partialRectangle;connectable=0;fillColor=none;top=0;left=0;bottom=0;right=0;align=left;spacingLeft=6;fontStyle=5;overflow=hidden;" vertex="1" parent="tI-stVmSsfOykZiwrWRr-188">
          <mxGeometry x="30" width="150" height="30" as="geometry" />
        </mxCell>
        <mxCell id="tI-stVmSsfOykZiwrWRr-144" value="" style="shape=partialRectangle;collapsible=0;dropTarget=0;pointerEvents=0;fillColor=none;top=0;left=0;bottom=0;right=0;points=[[0,0.5],[1,0.5]];portConstraint=eastwest;" vertex="1" parent="tI-stVmSsfOykZiwrWRr-140">
          <mxGeometry y="90" width="180" height="30" as="geometry" />
        </mxCell>
        <mxCell id="tI-stVmSsfOykZiwrWRr-145" value="" style="shape=partialRectangle;connectable=0;fillColor=none;top=0;left=0;bottom=0;right=0;editable=1;overflow=hidden;" vertex="1" parent="tI-stVmSsfOykZiwrWRr-144">
          <mxGeometry width="30" height="30" as="geometry" />
        </mxCell>
        <mxCell id="tI-stVmSsfOykZiwrWRr-146" value="card" style="shape=partialRectangle;connectable=0;fillColor=none;top=0;left=0;bottom=0;right=0;align=left;spacingLeft=6;overflow=hidden;" vertex="1" parent="tI-stVmSsfOykZiwrWRr-144">
          <mxGeometry x="30" width="150" height="30" as="geometry" />
        </mxCell>
        <mxCell id="tI-stVmSsfOykZiwrWRr-156" value="Employyee" style="shape=table;startSize=30;container=1;collapsible=1;childLayout=tableLayout;fixedRows=1;rowLines=0;fontStyle=1;align=center;resizeLast=1;" vertex="1" parent="WIyWlLk6GJQsqaUBKTNV-1">
          <mxGeometry x="342" y="650" width="180" height="120" as="geometry" />
        </mxCell>
        <mxCell id="tI-stVmSsfOykZiwrWRr-157" value="" style="shape=partialRectangle;collapsible=0;dropTarget=0;pointerEvents=0;fillColor=none;top=0;left=0;bottom=1;right=0;points=[[0,0.5],[1,0.5]];portConstraint=eastwest;" vertex="1" parent="tI-stVmSsfOykZiwrWRr-156">
          <mxGeometry y="30" width="180" height="30" as="geometry" />
        </mxCell>
        <mxCell id="tI-stVmSsfOykZiwrWRr-158" value="PK" style="shape=partialRectangle;connectable=0;fillColor=none;top=0;left=0;bottom=0;right=0;fontStyle=1;overflow=hidden;" vertex="1" parent="tI-stVmSsfOykZiwrWRr-157">
          <mxGeometry width="30" height="30" as="geometry" />
        </mxCell>
        <mxCell id="tI-stVmSsfOykZiwrWRr-159" value="id" style="shape=partialRectangle;connectable=0;fillColor=none;top=0;left=0;bottom=0;right=0;align=left;spacingLeft=6;fontStyle=5;overflow=hidden;" vertex="1" parent="tI-stVmSsfOykZiwrWRr-157">
          <mxGeometry x="30" width="150" height="30" as="geometry" />
        </mxCell>
        <mxCell id="tI-stVmSsfOykZiwrWRr-160" value="" style="shape=partialRectangle;collapsible=0;dropTarget=0;pointerEvents=0;fillColor=none;top=0;left=0;bottom=0;right=0;points=[[0,0.5],[1,0.5]];portConstraint=eastwest;" vertex="1" parent="tI-stVmSsfOykZiwrWRr-156">
          <mxGeometry y="60" width="180" height="30" as="geometry" />
        </mxCell>
        <mxCell id="tI-stVmSsfOykZiwrWRr-161" value="" style="shape=partialRectangle;connectable=0;fillColor=none;top=0;left=0;bottom=0;right=0;editable=1;overflow=hidden;" vertex="1" parent="tI-stVmSsfOykZiwrWRr-160">
          <mxGeometry width="30" height="30" as="geometry" />
        </mxCell>
        <mxCell id="tI-stVmSsfOykZiwrWRr-162" value="surname" style="shape=partialRectangle;connectable=0;fillColor=none;top=0;left=0;bottom=0;right=0;align=left;spacingLeft=6;overflow=hidden;" vertex="1" parent="tI-stVmSsfOykZiwrWRr-160">
          <mxGeometry x="30" width="150" height="30" as="geometry" />
        </mxCell>
        <mxCell id="tI-stVmSsfOykZiwrWRr-163" value="" style="shape=partialRectangle;collapsible=0;dropTarget=0;pointerEvents=0;fillColor=none;top=0;left=0;bottom=0;right=0;points=[[0,0.5],[1,0.5]];portConstraint=eastwest;" vertex="1" parent="tI-stVmSsfOykZiwrWRr-156">
          <mxGeometry y="90" width="180" height="30" as="geometry" />
        </mxCell>
        <mxCell id="tI-stVmSsfOykZiwrWRr-164" value="" style="shape=partialRectangle;connectable=0;fillColor=none;top=0;left=0;bottom=0;right=0;editable=1;overflow=hidden;" vertex="1" parent="tI-stVmSsfOykZiwrWRr-163">
          <mxGeometry width="30" height="30" as="geometry" />
        </mxCell>
        <mxCell id="tI-stVmSsfOykZiwrWRr-165" value="name" style="shape=partialRectangle;connectable=0;fillColor=none;top=0;left=0;bottom=0;right=0;align=left;spacingLeft=6;overflow=hidden;" vertex="1" parent="tI-stVmSsfOykZiwrWRr-163">
          <mxGeometry x="30" width="150" height="30" as="geometry" />
        </mxCell>
        <mxCell id="tI-stVmSsfOykZiwrWRr-172" value="Passport Derail" style="shape=table;startSize=30;container=1;collapsible=1;childLayout=tableLayout;fixedRows=1;rowLines=0;fontStyle=1;align=center;resizeLast=1;" vertex="1" parent="WIyWlLk6GJQsqaUBKTNV-1">
          <mxGeometry x="562" y="650" width="180" height="120" as="geometry" />
        </mxCell>
        <mxCell id="tI-stVmSsfOykZiwrWRr-173" value="" style="shape=partialRectangle;collapsible=0;dropTarget=0;pointerEvents=0;fillColor=none;top=0;left=0;bottom=1;right=0;points=[[0,0.5],[1,0.5]];portConstraint=eastwest;" vertex="1" parent="tI-stVmSsfOykZiwrWRr-172">
          <mxGeometry y="30" width="180" height="30" as="geometry" />
        </mxCell>
        <mxCell id="tI-stVmSsfOykZiwrWRr-174" value="PK" style="shape=partialRectangle;connectable=0;fillColor=none;top=0;left=0;bottom=0;right=0;fontStyle=1;overflow=hidden;" vertex="1" parent="tI-stVmSsfOykZiwrWRr-173">
          <mxGeometry width="30" height="30" as="geometry" />
        </mxCell>
        <mxCell id="tI-stVmSsfOykZiwrWRr-175" value="id" style="shape=partialRectangle;connectable=0;fillColor=none;top=0;left=0;bottom=0;right=0;align=left;spacingLeft=6;fontStyle=5;overflow=hidden;" vertex="1" parent="tI-stVmSsfOykZiwrWRr-173">
          <mxGeometry x="30" width="150" height="30" as="geometry" />
        </mxCell>
        <mxCell id="tI-stVmSsfOykZiwrWRr-191" value="" style="shape=partialRectangle;collapsible=0;dropTarget=0;pointerEvents=0;fillColor=none;top=0;left=0;bottom=1;right=0;points=[[0,0.5],[1,0.5]];portConstraint=eastwest;" vertex="1" parent="tI-stVmSsfOykZiwrWRr-172">
          <mxGeometry y="60" width="180" height="30" as="geometry" />
        </mxCell>
        <mxCell id="tI-stVmSsfOykZiwrWRr-192" value="FK" style="shape=partialRectangle;connectable=0;fillColor=none;top=0;left=0;bottom=0;right=0;fontStyle=1;overflow=hidden;" vertex="1" parent="tI-stVmSsfOykZiwrWRr-191">
          <mxGeometry width="30" height="30" as="geometry" />
        </mxCell>
        <mxCell id="tI-stVmSsfOykZiwrWRr-193" value="emp_id" style="shape=partialRectangle;connectable=0;fillColor=none;top=0;left=0;bottom=0;right=0;align=left;spacingLeft=6;fontStyle=5;overflow=hidden;" vertex="1" parent="tI-stVmSsfOykZiwrWRr-191">
          <mxGeometry x="30" width="150" height="30" as="geometry" />
        </mxCell>
        <mxCell id="tI-stVmSsfOykZiwrWRr-185" style="shape=partialRectangle;collapsible=0;dropTarget=0;pointerEvents=0;fillColor=none;top=0;left=0;bottom=0;right=0;points=[[0,0.5],[1,0.5]];portConstraint=eastwest;" vertex="1" parent="tI-stVmSsfOykZiwrWRr-172">
          <mxGeometry y="90" width="180" height="30" as="geometry" />
        </mxCell>
        <mxCell id="tI-stVmSsfOykZiwrWRr-186" style="shape=partialRectangle;connectable=0;fillColor=none;top=0;left=0;bottom=0;right=0;editable=1;overflow=hidden;" vertex="1" parent="tI-stVmSsfOykZiwrWRr-185">
          <mxGeometry width="30" height="30" as="geometry" />
        </mxCell>
        <mxCell id="tI-stVmSsfOykZiwrWRr-187" value="passport" style="shape=partialRectangle;connectable=0;fillColor=none;top=0;left=0;bottom=0;right=0;align=left;spacingLeft=6;overflow=hidden;" vertex="1" parent="tI-stVmSsfOykZiwrWRr-185">
          <mxGeometry x="30" width="150" height="30" as="geometry" />
        </mxCell>
        <mxCell id="tI-stVmSsfOykZiwrWRr-194" style="edgeStyle=orthogonalEdgeStyle;rounded=0;orthogonalLoop=1;jettySize=auto;html=1;exitX=0;exitY=0.5;exitDx=0;exitDy=0;entryX=1;entryY=0.5;entryDx=0;entryDy=0;fontColor=#000000;" edge="1" parent="WIyWlLk6GJQsqaUBKTNV-1" source="tI-stVmSsfOykZiwrWRr-191" target="tI-stVmSsfOykZiwrWRr-157">
          <mxGeometry relative="1" as="geometry" />
        </mxCell>
        <mxCell id="tI-stVmSsfOykZiwrWRr-195" style="edgeStyle=orthogonalEdgeStyle;rounded=0;orthogonalLoop=1;jettySize=auto;html=1;exitX=1;exitY=0.5;exitDx=0;exitDy=0;fontColor=#000000;" edge="1" parent="WIyWlLk6GJQsqaUBKTNV-1" source="tI-stVmSsfOykZiwrWRr-188" target="tI-stVmSsfOykZiwrWRr-157">
          <mxGeometry relative="1" as="geometry" />
        </mxCell>
        <mxCell id="tI-stVmSsfOykZiwrWRr-196" value="" style="line;strokeWidth=4;html=1;perimeter=backbonePerimeter;points=[];outlineConnect=0;labelBackgroundColor=none;fontColor=#000000;align=center;" vertex="1" parent="WIyWlLk6GJQsqaUBKTNV-1">
          <mxGeometry x="42" y="160" width="760" height="10" as="geometry" />
        </mxCell>
        <mxCell id="tI-stVmSsfOykZiwrWRr-197" value="" style="line;strokeWidth=4;html=1;perimeter=backbonePerimeter;points=[];outlineConnect=0;labelBackgroundColor=none;fontColor=#000000;align=center;" vertex="1" parent="WIyWlLk6GJQsqaUBKTNV-1">
          <mxGeometry x="42" y="380" width="760" height="10" as="geometry" />
        </mxCell>
        <mxCell id="tI-stVmSsfOykZiwrWRr-198" value="" style="line;strokeWidth=4;html=1;perimeter=backbonePerimeter;points=[];outlineConnect=0;labelBackgroundColor=none;fontColor=#000000;align=center;" vertex="1" parent="WIyWlLk6GJQsqaUBKTNV-1">
          <mxGeometry x="42" y="610" width="760" height="10" as="geometry" />
        </mxCell>
        <mxCell id="tI-stVmSsfOykZiwrWRr-199" value="" style="line;strokeWidth=4;html=1;perimeter=backbonePerimeter;points=[];outlineConnect=0;labelBackgroundColor=none;fontColor=#000000;align=center;" vertex="1" parent="WIyWlLk6GJQsqaUBKTNV-1">
          <mxGeometry x="42" y="810" width="760" height="10" as="geometry" />
        </mxCell>
        <mxCell id="tI-stVmSsfOykZiwrWRr-200" value="1" style="shape=ext;double=1;whiteSpace=wrap;html=1;aspect=fixed;labelBackgroundColor=none;strokeColor=#1A1A1A;fontColor=#000000;align=center;fontSize=32;" vertex="1" parent="WIyWlLk6GJQsqaUBKTNV-1">
          <mxGeometry x="10" y="20" width="50" height="50" as="geometry" />
        </mxCell>
        <mxCell id="tI-stVmSsfOykZiwrWRr-201" value="2" style="shape=ext;double=1;whiteSpace=wrap;html=1;aspect=fixed;labelBackgroundColor=none;strokeColor=#1A1A1A;fontColor=#000000;align=center;fontSize=32;" vertex="1" parent="WIyWlLk6GJQsqaUBKTNV-1">
          <mxGeometry x="10" y="200" width="50" height="50" as="geometry" />
        </mxCell>
        <mxCell id="tI-stVmSsfOykZiwrWRr-202" value="3" style="shape=ext;double=1;whiteSpace=wrap;html=1;aspect=fixed;labelBackgroundColor=none;strokeColor=#1A1A1A;fontColor=#000000;align=center;fontSize=32;" vertex="1" parent="WIyWlLk6GJQsqaUBKTNV-1">
          <mxGeometry x="10" y="410" width="50" height="50" as="geometry" />
        </mxCell>
        <mxCell id="tI-stVmSsfOykZiwrWRr-203" value="4" style="shape=ext;double=1;whiteSpace=wrap;html=1;aspect=fixed;labelBackgroundColor=none;strokeColor=#1A1A1A;fontColor=#000000;align=center;fontSize=32;" vertex="1" parent="WIyWlLk6GJQsqaUBKTNV-1">
          <mxGeometry x="10" y="630" width="50" height="50" as="geometry" />
        </mxCell>
      </root>
    </mxGraphModel>
  </diagram>
</mxfile>
